<?xml version="1.0" encoding="utf-8"?>
<svg xmlns="http://www.w3.org/2000/svg" xmlns:svg="http://www.w3.org/2000/svg" version="1.1" viewBox="0 0 1400 440">
	<title>The titlepage for the Standard Ebooks edition of The Marvelous Land of Oz, by L. Frank Baum</title>
	<g aria-label="THE MARVELOUS">
		<path d="M 256.36622,68.245613 H 274.7054 V 130 h 17.59065 V 68.245613 h 18.33918 V 52.807016 h -54.26901 z"/>
		<path d="m 339.56067,99.029239 h 24.88888 V 130 H 382.0402 V 52.807016 H 364.44955 V 83.590642 H 339.56067 V 52.807016 H 321.97002 V 130 h 17.59065 z"/>
		<path d="M 442.4057,52.807016 H 398.24196 V 130 H 442.4057 V 114.5614 H 415.8326 V 99.029239 h 25.45029 V 83.590642 H 415.8326 V 68.245613 h 26.5731 z"/>
		<path d="m 551.91594,130 h 17.59064 L 562.5826,52.807016 H 543.86915 L 526.74635,97.345029 509.62354,52.807016 H 490.91009 L 483.98611,130 h 17.59065 l 3.64912,-45.754387 h 0.46783 l 15.81287,45.286547 h 10.47953 l 15.81287,-45.286547 h 0.46783 z"/>
		<path d="m 620.75805,52.807016 h -16.2807 L 573.31945,130 h 18.90059 l 5.7076,-15.4386 h 29.38012 L 633.01536,130 h 18.90059 z m 0.56141,46.31579 h -17.40351 l 8.60818,-22.45614 h 0.18714 z"/>
		<path d="M 659.83554,52.807016 V 130 h 17.59064 V 99.497075 L 701.00513,130 H 723.3677 L 696.7946,98.093567 c 9.4503,-2.994152 15.81287,-10.760234 15.81287,-22.362574 0,-15.157895 -10.8538,-22.923977 -25.16959,-22.923977 z m 17.59064,34.245615 V 66.842104 h 2.05848 c 6.64328,0 14.59649,0.467836 14.59649,10.105263 0,9.637428 -7.95321,10.105264 -14.59649,10.105264 z"/>
		<path d="m 756.04459,130 h 13.84795 L 802.26681,52.807016 H 782.43055 L 762.96856,103.52047 743.50657,52.807016 h -19.83625 z"/>
		<path d="M 854.35017,52.807016 H 810.18643 V 130 h 44.16374 v -15.4386 h -26.5731 V 99.029239 h 25.4503 V 83.590642 h -25.4503 V 68.245613 h 26.5731 z"/>
		<path d="M 887.05338,52.807016 H 869.46274 V 130 h 44.16374 v -15.4386 h -26.5731 z"/>
		<path d="m 923.81508,91.356724 c 0,22.549706 16.09357,40.046786 38.92398,40.046786 22.17543,0 38.83044,-17.49708 38.83044,-40.046786 0,-22.549708 -17.40354,-39.953217 -38.83044,-39.953217 -21.23977,0 -38.92398,17.403509 -38.92398,39.953217 z m 18.99415,0 c 0,-11.508772 6.36257,-23.017544 19.92983,-23.017544 13.66081,0 19.83625,11.508772 19.83625,23.017544 0,11.508776 -5.80117,23.017546 -19.83625,23.017546 -14.40936,0 -19.92983,-11.50877 -19.92983,-23.017546 z"/>
		<path d="m 1073.6528,52.807016 h -17.5907 v 44.63158 c 0,12.912284 -3.9298,16.654974 -12.538,16.654974 -8.6082,0 -12.538,-3.74269 -12.538,-16.654974 v -44.63158 h -17.5906 v 49.777774 c 0,19.08772 10.4795,28.81872 30.1286,28.81872 19.6492,0 30.1287,-9.731 30.1287,-28.81872 z"/>
		<path d="m 1115.5753,51.403507 c -12.4445,0 -25.1696,9.169591 -25.1696,23.578948 0,8.046784 5.4269,15.251462 14.69,19.836258 9.1696,4.584795 17.4035,7.111107 17.4035,12.725147 0,7.20468 -7.2982,7.57895 -11.1345,7.57895 -8.6081,0 -18.9005,-8.70176 -18.9005,-8.70176 l -8.7954,14.78363 c 0,0 10.9474,10.19883 29.0059,10.19883 15.0643,0 29.0994,-6.45614 29.0994,-24.88889 0,-10.105264 -9.4503,-17.40351 -18.0585,-21.052632 -8.7953,-3.742691 -16.0935,-6.83041 -16.0935,-11.134504 0,-4.210526 3.1812,-6.923976 9.1695,-6.923976 7.9533,0 15.6258,5.333333 15.6258,5.333333 l 7.1111,-14.035088 c 0,0 -9.9181,-7.298246 -23.9532,-7.298246 z"/>
	</g>
	<g aria-label="LAND OF OZ">
		<path d="M 393.59576,152.80702 H 376.00511 V 230 h 44.16375 v -15.4386 h -26.5731 z"/>
		<path d="m 474.48611,152.80702 h -16.2807 L 427.04751,230 h 18.90059 l 5.7076,-15.4386 h 29.38012 L 486.74342,230 H 505.644 Z m 0.5614,46.31579 H 457.644 l 8.60819,-22.45614 h 0.18713 z"/>
		<path d="m 531.15424,182.09357 h 0.18714 L 562.03144,230 h 17.59064 v -77.19298 h -17.59064 v 47.90643 H 561.8443 L 531.15424,152.80702 H 513.5636 V 230 h 17.59064 z"/>
		<path d="M 595.86623,152.80702 V 230 h 22.36257 c 21.23977,0 38.92398,-16.09357 38.92398,-38.64328 0,-22.45614 -17.77778,-38.5497 -38.92398,-38.5497 z m 17.59064,61.47368 v -45.75439 h 2.71345 c 13.09942,0 21.9883,10.0117 21.9883,22.92398 -0.0936,12.91228 -8.98245,22.83041 -21.9883,22.83041 z"/>
		<path d="m 697.068,191.35672 c 0,22.54971 16.09356,40.04679 38.92397,40.04679 22.17544,0 38.83041,-17.49708 38.83041,-40.04679 0,-22.5497 -17.40351,-39.95321 -38.83041,-39.95321 -21.23976,0 -38.92397,17.40351 -38.92397,39.95321 z m 18.99415,0 c 0,-11.50877 6.36257,-23.01754 19.92982,-23.01754 13.66082,0 19.83626,11.50877 19.83626,23.01754 0,11.50878 -5.80117,23.01755 -19.83626,23.01755 -14.40935,0 -19.92982,-11.50877 -19.92982,-23.01755 z"/>
		<path d="M 832.21564,152.80702 H 787.58406 V 230 h 17.59064 v -30.97076 h 24.98246 v -15.4386 H 805.1747 v -15.34503 h 27.04094 z"/>
		<path d="m 872.70395,191.35672 c 0,22.54971 16.09357,40.04679 38.92398,40.04679 22.17544,0 38.83041,-17.49708 38.83041,-40.04679 0,-22.5497 -17.40351,-39.95321 -38.83041,-39.95321 -21.23977,0 -38.92398,17.40351 -38.92398,39.95321 z m 18.99415,0 c 0,-11.50877 6.36258,-23.01754 19.92983,-23.01754 13.66082,0 19.83626,11.50877 19.83626,23.01754 0,11.50878 -5.80117,23.01755 -19.83626,23.01755 -14.40936,0 -19.92983,-11.50877 -19.92983,-23.01755 z"/>
		<path d="m 1028.0621,152.80702 h -63.53214 v 15.43859 H 997.2785 L 959.10306,230 h 66.43274 v -15.4386 h -35.74268 z"/>
	</g>
	<g aria-label="L. FRANK BAUM">
		<path d="M 397.58717,332.10526 H 384.39419 V 390 H 417.517 v -11.57895 h -19.92983 z"/>
		<path d="m 437.00494,374.98246 c -4.42106,0 -8,3.57894 -8,8.07017 0,4.42105 3.57894,8 8,8 4.49122,0 8.07017,-3.57895 8.07017,-8 0,-4.49123 -3.57895,-8.07017 -8.07017,-8.07017 z"/>
		<path d="M 516.2012,332.10526 H 482.72752 V 390 h 13.19298 v -23.22807 h 18.73684 V 355.19298 H 495.9205 v -11.50877 h 20.2807 z"/>
		<path d="M 527.47534,332.10526 V 390 h 13.19298 V 367.12281 L 558.35253,390 h 16.77193 l -19.92982,-23.92982 c 7.08771,-2.24562 11.85964,-8.07018 11.85964,-16.77193 0,-11.36842 -8.14035,-17.19299 -18.87719,-17.19299 z m 13.19298,25.68421 v -15.15789 h 1.54386 c 4.98246,0 10.94737,0.35088 10.94737,7.57895 0,7.22807 -5.96491,7.57894 -10.94737,7.57894 z"/>
		<path d="M 612.18037,332.10526 H 599.96985 L 576.60143,390 h 14.17544 l 4.2807,-11.57895 h 22.03509 L 621.37336,390 h 14.17544 z m 0.42106,34.73685 H 599.5488 L 606.00494,350 h 0.14035 z"/>
		<path d="m 655.93147,354.07018 h 0.14035 L 679.08937,390 h 13.19298 v -57.89474 h -13.19298 v 35.92983 h -0.14035 L 655.93147,332.10526 H 642.73849 V 390 h 13.19298 z"/>
		<path d="m 758.4172,390 -26.94736,-30.45614 23.29824,-27.4386 h -16 l -19.85965,23.64913 V 332.10526 H 705.71545 V 390 h 13.19298 V 365.4386 L 740.24177,390 Z"/>
		<path d="M 790.1398,332.10526 V 390 h 21.96491 c 12,0 18.94737,-6.59649 18.94737,-16.14035 0,-9.33333 -5.12281,-13.33333 -12.35088,-14.59649 4.91228,-2.52632 7.22807,-7.08772 7.22807,-12.42105 0,-11.01755 -7.85965,-14.73685 -17.82456,-14.73685 z m 13.19298,22.66667 V 342.2807 h 1.05263 c 5.75439,0 8.77193,1.75439 8.77193,5.89474 0,4.8421 -3.08772,6.59649 -8.77193,6.59649 z m 0,25.05263 v -13.68421 h 4.14035 c 6.24561,0 9.68421,1.89474 9.68421,7.22807 0,4.5614 -3.4386,6.45614 -9.68421,6.45614 z"/>
		<path d="M 869.91065,332.10526 H 857.70012 L 834.3317,390 h 14.17544 l 4.2807,-11.57895 h 22.03509 L 879.10363,390 h 14.17544 z m 0.42105,34.73685 H 857.27907 L 863.73521,350 h 0.14035 z"/>
		<path d="m 944.96,332.10526 h -13.19298 v 33.47369 c 0,9.68421 -2.94737,12.49123 -9.40351,12.49123 -6.45614,0 -9.40351,-2.80702 -9.40351,-12.49123 v -33.47369 h -13.19298 v 37.33334 c 0,14.31579 7.85965,21.61403 22.59649,21.61403 14.73684,0 22.59649,-7.29824 22.59649,-21.61403 z"/>
		<path d="m 1005.5488,390 h 13.193 l -5.193,-57.89474 h -14.03506 l -12.84211,33.40351 -12.84211,-33.40351 H 959.79444 L 954.60145,390 h 13.19299 l 2.73684,-34.31579 h 0.35088 l 11.85965,33.96491 h 7.85964 l 11.85965,-33.96491 h 0.3509 z"/>
	</g>
</svg>
